<svg xmlns="http://www.w3.org/2000/svg" viewBox="0 0 500 500" width="600" height="500">
     <line stroke="black" stroke-width="3" x1="50" y1="50\\0" x2="50" y2="450"/>
     <text fill="black" x="220" y="490">Year (1960-2020)</text>
     <line stroke="black" stroke-width="3" x1="50" y1="450" x2="520" y2="450"/>
     <text font-size="15" fill="black" x="-20" y="240">Age</text>
     {% for age in ages %}
     <text text-anchor="end" x="35" y="{{450-(age * 4)}}" fil="black">{{age}}</text>
     {% endfor %}
     {% for year in years2 %}
     <text text-anchor="start" x="{{50 + (loop.index0 * 75)}}" y="470" fil="black">{{year}}</text>
     {% endfor %}
     <g class="canada">
          <text fill="blue" x="440" y="15">Canada</text>
          {% for x in Canada %}
          <line stroke-width="2" x1="{{50+(loop.index0 * 7.5)}}" y1="{{450 - (x[0] * 4)}}" x2="{{57.5 + (loop.index0 * 7.5)}}" y2="{{450 - (x[1] * 4)}}"/>
          {% endfor %}
     </g>
     <g class="us">
          <text fill="red" x="450" y="30">USA</text>
          {% for x in Us %}
          <line stroke-width="2" x1="{{50+(loop.index0 * 7.5)}}" y1="{{450 - (x[0] * 4)}}" x2="{{57.5 + (loop.index0 * 7.5)}}" y2="{{450 - (x[1] * 4)}}"/>
          {% endfor %}
     </g>
     <g class="mexico">
          <text fill="orange" x="440" y="45">Mexico</text>
          {% for x in Mex %}
          <line stroke-width="2" x1="{{50+(loop.index0 * 7.5)}}" y1="{{450 - (x[0] * 4)}}" x2="{{57.5 + (loop.index0 * 7.5)}}" y2="{{450 - (x[1] * 4)}}"/>
          {% endfor %}
     </g>
     <g class="average">
          <text fill="purple" x="440" y="60">Average</text>
          <line stroke-width="2" x1="{{50}}" y1="{{450 - (74.5 * 4)}}" x2="{{500}}" y2="{{450 - (74.5 * 4)}}"/>
     </g>
</svg>